<svg xmlns="http://www.w3.org/2000/svg" viewBox="0 0 400 400" width="400" height="400">
  <defs>
    <radialGradient id="bg1" cx="50%" cy="40%" r="75%">
      <stop offset="0%" stop-color="#123a55"/><stop offset="50%" stop-color="#0a1c30"/><stop offset="100%" stop-color="#04060f"/>
    </radialGradient>
    <linearGradient id="steel1" x1="0" y1="0" x2="0" y2="1">
      <stop offset="0%" stop-color="#a9f0ff"/><stop offset="40%" stop-color="#37b3e0"/><stop offset="100%" stop-color="#0f4a6b"/>
    </linearGradient>
    <linearGradient id="grip1" x1="0" y1="0" x2="1" y2="1">
      <stop offset="0%" stop-color="#42566b"/><stop offset="100%" stop-color="#141d29"/>
    </linearGradient>
    <linearGradient id="frame1" x1="0" y1="0" x2="1" y2="1">
      <stop offset="0%" stop-color="#ffd36b"/><stop offset="100%" stop-color="#c77d1a"/>
    </linearGradient>
    <filter id="glow1" x="-50%" y="-50%" width="200%" height="200%">
      <feGaussianBlur stdDeviation="6" result="b"/><feMerge><feMergeNode in="b"/><feMergeNode in="SourceGraphic"/></feMerge>
    </filter>
    <filter id="soft1" x="-50%" y="-50%" width="200%" height="200%"><feGaussianBlur stdDeviation="18"/></filter>
  </defs>
  <rect width="400" height="400" rx="28" fill="url(#bg1)"/>
  <ellipse cx="200" cy="205" rx="150" ry="70" fill="#1fb6e6" opacity="0.35" filter="url(#soft1)"/>
  <g fill="#5fe0ff" opacity="0.7">
    <circle cx="60" cy="70" r="3"/><circle cx="330" cy="60" r="2.5"/><circle cx="350" cy="150" r="2"/>
    <circle cx="70" cy="320" r="2.5"/><circle cx="320" cy="330" r="3"/><circle cx="45" cy="200" r="2"/>
  </g>
  <g filter="url(#glow1)">
    <path d="M80 152 L330 152 L330 148 L342 148 L342 180 L232 180 Q232 218 208 218 L195 218 Q188 218 188 205 L188 180 L172 180 L150 300 L108 300 L130 210 Q100 205 100 180 L80 180 Z" fill="url(#steel1)" stroke="#0a3247" stroke-width="2"/>
    <path d="M172 182 L150 298 L110 298 L131 210 Q104 205 103 182 Z" fill="url(#grip1)" opacity="0.9"/>
    <rect x="250" y="158" width="46" height="12" rx="2" fill="#0a2c40"/>
    <path d="M205 184 L201 205 L210 205 L214 184 Z" fill="#0a2c40"/>
    <rect x="90" y="155" width="245" height="3" rx="1.5" fill="#d8fbff" opacity="0.8"/>
  </g>
  <rect x="8" y="8" width="384" height="384" rx="24" fill="none" stroke="url(#frame1)" stroke-width="4"/>
</svg>
